{
	"asset":{
		"version":"2.0",
		"generator":"Maxon Cinema 4D 2023.2.2 (#200000219)"
	},
	"scenes":[{
		"nodes":[0]
	}],
	"nodes":[{
		"name":"1.1",
		"children":[1,
		2,
		3,
		4,
		5]
	},
	{
		"name":"空白",
		"translation":[-0.01182482484728098,
		0.002125454368069768,
		0.007219793274998665],
		"rotation":[0.0,
		0.0,
		0.0,
		-1.0],
		"scale":[1.0,
		1.0,
		1.0],
		"children":[6,
		7,
		8]
	},
	{
		"name":"布尔",
		"translation":[-0.01179636549204588,
		-0.001441612490452826,
		0.007914016954600811],
		"rotation":[0.6830127239227295,
		0.1830127090215683,
		0.1830127090215683,
		-0.6830127239227295],
		"scale":[1.0,
		1.0,
		1.0],
		"children":[9,
		10]
	},
	{
		"mesh":0,
		"name":"本体.5",
		"translation":[0.011203634552657605,
		0.002381701022386551,
		0.006524017546325922],
		"rotation":[0.6831402778625488,
		0.1825358271598816,
		0.1825358271598816,
		-0.6831402778625488],
		"scale":[1.0,
		1.0,
		1.0]
	},
	{
		"mesh":1,
		"name":"本体.1",
		"translation":[0.010618012398481369,
		0.0008924304856918752,
		0.006071493029594421],
		"rotation":[0.6830127239227295,
		0.1830127090215683,
		0.1830127090215683,
		-0.6830127239227295],
		"scale":[0.9950000047683716,
		0.9950000047683716,
		0.9950000047683716]
	},
	{
		"mesh":2,
		"name":"本体",
		"translation":[0.011373145505785942,
		-0.0012750563910230995,
		0.006507681682705879],
		"rotation":[0.6830127239227295,
		0.1830127090215683,
		0.1830127090215683,
		-0.6830127239227295],
		"scale":[1.0,
		1.0,
		1.0]
	},
	{
		"mesh":3,
		"name":"本体.4",
		"translation":[0.01149507611989975,
		0.00016012405103538185,
		-0.06269682198762894],
		"rotation":[-0.5,
		0.5,
		0.5,
		0.5],
		"scale":[1.0,
		1.0,
		1.0]
	},
	{
		"mesh":4,
		"name":"本体.3",
		"translation":[-0.03671806678175926,
		-0.00014973575889598578,
		0.020335860550403596],
		"rotation":[0.1830127090215683,
		0.6830127239227295,
		0.6830127239227295,
		-0.1830127090215683],
		"scale":[1.0,
		1.0,
		1.0]
	},
	{
		"mesh":5,
		"name":"本体.2",
		"translation":[0.05955992266535759,
		-0.00016012405103538185,
		0.020388543605804445],
		"rotation":[0.6830127239227295,
		0.1830127090215683,
		0.1830127090215683,
		-0.6830127239227295],
		"scale":[1.0,
		1.0,
		1.0]
	},
	{
		"mesh":6,
		"name":"本体",
		"translation":[0.019279740750789644,
		0.012625539675354958,
		0.0010126912966370583],
		"rotation":[0.0,
		0.0,
		0.0,
		-1.0],
		"scale":[1.0,
		1.0,
		1.0]
	},
	{
		"name":"空白",
		"translation":[1.33160300150853e-18,
		5.102107507279647e-18,
		-0.0010126912966370583],
		"rotation":[4.491387957681322e-33,
		1.7935102118935175e-32,
		0.24292312562465669,
		0.9700455665588379],
		"scale":[1.0,
		1.0,
		1.0],
		"children":[11]
	},
	{
		"mesh":7,
		"name":"立方体.3",
		"translation":[-0.01671486720442772,
		0.023778017610311509,
		4.007403863327476e-17],
		"rotation":[9.702983809449442e-35,
		1.6636488005093448e-34,
		0.5038077235221863,
		0.8638158440589905],
		"scale":[1.0,
		1.0,
		1.0]
	}],
	"meshes":[{
		"name":"本体.5",
		"primitives":[{
			"attributes":{
				"POSITION":1,
				"NORMAL":2,
				"TEXCOORD_0":3
			},
			"indices":0,
			"material":0
		}]
	},
	{
		"name":"本体.1",
		"primitives":[{
			"attributes":{
				"POSITION":5,
				"NORMAL":6,
				"TEXCOORD_0":7
			},
			"indices":4,
			"material":1
		}]
	},
	{
		"name":"本体",
		"primitives":[{
			"attributes":{
				"POSITION":9,
				"NORMAL":10,
				"TEXCOORD_0":11
			},
			"indices":8,
			"material":2
		}]
	},
	{
		"name":"本体.4",
		"primitives":[{
			"attributes":{
				"POSITION":13,
				"NORMAL":14,
				"TEXCOORD_0":15
			},
			"indices":12,
			"material":3
		}]
	},
	{
		"name":"本体.3",
		"primitives":[{
			"attributes":{
				"POSITION":17,
				"NORMAL":18,
				"TEXCOORD_0":19
			},
			"indices":16,
			"material":4
		}]
	},
	{
		"name":"本体.2",
		"primitives":[{
			"attributes":{
				"POSITION":21,
				"NORMAL":22,
				"TEXCOORD_0":23
			},
			"indices":20,
			"material":5
		}]
	},
	{
		"name":"本体",
		"primitives":[{
			"attributes":{
				"POSITION":25,
				"NORMAL":26,
				"TEXCOORD_0":27
			},
			"indices":24,
			"material":6
		}]
	},
	{
		"name":"立方体.3",
		"primitives":[{
			"attributes":{
				"POSITION":29,
				"NORMAL":30,
				"TEXCOORD_0":31
			},
			"indices":28,
			"material":7
		}]
	}],
	"accessors":[{
		"bufferView":0,
		"type":"SCALAR",
		"componentType":5123,
		"count":60,
		"byteOffset":0,
		"min":[0],
		"max":[35]
	},
	{
		"bufferView":1,
		"type":"VEC3",
		"componentType":5126,
		"count":36,
		"byteOffset":0,
		"min":[-0.0475599430501461,
		-0.05494348332285881,
		-0.00043420842848718166],
		"max":[0.0475599430501461,
		0.05494348332285881,
		0.00043420842848718166]
	},
	{
		"bufferView":1,
		"type":"VEC3",
		"componentType":5126,
		"count":36,
		"byteOffset":12,
		"min":[-1.0,
		-0.8659977912902832,
		-1.0],
		"max":[1.0,
		0.8659279942512512,
		1.0]
	},
	{
		"bufferView":1,
		"type":"VEC2",
		"componentType":5126,
		"count":36,
		"byteOffset":24,
		"min":[-0.3660254180431366,
		-0.28044843673706057],
		"max":[1.366025447845459,
		1.2801761627197266]
	},
	{
		"bufferView":2,
		"type":"SCALAR",
		"componentType":5123,
		"count":60,
		"byteOffset":0,
		"min":[0],
		"max":[35]
	},
	{
		"bufferView":3,
		"type":"VEC3",
		"componentType":5126,
		"count":36,
		"byteOffset":0,
		"min":[-0.04516609013080597,
		-0.05216490477323532,
		-0.001147600938566029],
		"max":[0.04516609013080597,
		0.05216490477323532,
		0.001147600938566029]
	},
	{
		"bufferView":3,
		"type":"VEC3",
		"componentType":5126,
		"count":36,
		"byteOffset":12,
		"min":[-0.9999973773956299,
		-0.8659977912902832,
		-1.0],
		"max":[1.0,
		0.866019070148468,
		1.0]
	},
	{
		"bufferView":3,
		"type":"VEC2",
		"componentType":5126,
		"count":36,
		"byteOffset":24,
		"min":[0.0,
		0.0],
		"max":[1.0,
		1.0]
	},
	{
		"bufferView":4,
		"type":"SCALAR",
		"componentType":5123,
		"count":60,
		"byteOffset":0,
		"min":[0],
		"max":[35]
	},
	{
		"bufferView":5,
		"type":"VEC3",
		"componentType":5126,
		"count":36,
		"byteOffset":0,
		"min":[-0.047252655029296878,
		-0.054572124034166339,
		-0.00018247887783218175],
		"max":[0.047252655029296878,
		0.054572124034166339,
		0.00018247887783218175]
	},
	{
		"bufferView":5,
		"type":"VEC3",
		"componentType":5126,
		"count":36,
		"byteOffset":12,
		"min":[-1.0,
		-0.8659977912902832,
		-1.0],
		"max":[1.0,
		0.866019070148468,
		1.0]
	},
	{
		"bufferView":5,
		"type":"VEC2",
		"componentType":5126,
		"count":36,
		"byteOffset":24,
		"min":[-0.3224354684352875,
		-0.24079397320747376],
		"max":[1.3224354982376099,
		1.2409071922302247]
	},
	{
		"bufferView":6,
		"type":"SCALAR",
		"componentType":5123,
		"count":36,
		"byteOffset":0,
		"min":[0],
		"max":[23]
	},
	{
		"bufferView":7,
		"type":"VEC3",
		"componentType":5126,
		"count":24,
		"byteOffset":0,
		"min":[-0.004078253637999296,
		-0.00870796199887991,
		-0.00022328976774588227],
		"max":[0.004078253637999296,
		0.00870796199887991,
		0.00022328976774588227]
	},
	{
		"bufferView":7,
		"type":"VEC3",
		"componentType":5126,
		"count":24,
		"byteOffset":12,
		"min":[-1.0,
		-0.866019070148468,
		-1.0],
		"max":[1.0,
		0.866019070148468,
		1.0]
	},
	{
		"bufferView":7,
		"type":"VEC2",
		"componentType":5126,
		"count":24,
		"byteOffset":24,
		"min":[0.0,
		0.0],
		"max":[1.0,
		1.0]
	},
	{
		"bufferView":8,
		"type":"SCALAR",
		"componentType":5123,
		"count":36,
		"byteOffset":0,
		"min":[0],
		"max":[23]
	},
	{
		"bufferView":9,
		"type":"VEC3",
		"componentType":5126,
		"count":24,
		"byteOffset":0,
		"min":[-0.0036709036212414505,
		-0.007838180288672448,
		-0.0002009868185268715],
		"max":[0.0036709036212414505,
		0.007838180288672448,
		0.0002009868185268715]
	},
	{
		"bufferView":9,
		"type":"VEC3",
		"componentType":5126,
		"count":24,
		"byteOffset":12,
		"min":[-1.0,
		-0.866032600402832,
		-1.0],
		"max":[1.0,
		0.866032600402832,
		1.0]
	},
	{
		"bufferView":9,
		"type":"VEC2",
		"componentType":5126,
		"count":24,
		"byteOffset":24,
		"min":[0.0,
		0.0],
		"max":[1.0,
		1.0]
	},
	{
		"bufferView":10,
		"type":"SCALAR",
		"componentType":5123,
		"count":36,
		"byteOffset":0,
		"min":[0],
		"max":[23]
	},
	{
		"bufferView":11,
		"type":"VEC3",
		"componentType":5126,
		"count":24,
		"byteOffset":0,
		"min":[-0.003729067509993911,
		-0.007962373085319996,
		-0.0002041713596554473],
		"max":[0.003729067509993911,
		0.007962373085319996,
		0.0002041713596554473]
	},
	{
		"bufferView":11,
		"type":"VEC3",
		"componentType":5126,
		"count":24,
		"byteOffset":12,
		"min":[-1.0,
		-0.866019070148468,
		-1.0],
		"max":[1.0,
		0.866019070148468,
		1.0]
	},
	{
		"bufferView":11,
		"type":"VEC2",
		"componentType":5126,
		"count":24,
		"byteOffset":24,
		"min":[0.0,
		0.0],
		"max":[1.0,
		1.0]
	},
	{
		"bufferView":12,
		"type":"SCALAR",
		"componentType":5123,
		"count":750,
		"byteOffset":0,
		"min":[0],
		"max":[287]
	},
	{
		"bufferView":13,
		"type":"VEC3",
		"componentType":5126,
		"count":288,
		"byteOffset":0,
		"min":[-0.047564517706632617,
		-0.054930947721004489,
		-0.0022726738825440408],
		"max":[0.047564517706632617,
		0.054930947721004489,
		0.0022726738825440408]
	},
	{
		"bufferView":13,
		"type":"VEC3",
		"componentType":5126,
		"count":288,
		"byteOffset":12,
		"min":[-1.0,
		-0.8660404086112976,
		-1.0],
		"max":[1.0,
		0.866075336933136,
		1.0]
	},
	{
		"bufferView":13,
		"type":"VEC2",
		"componentType":5126,
		"count":288,
		"byteOffset":24,
		"min":[-0.3660254180431366,
		-0.28009235858917239],
		"max":[1.366025447845459,
		1.2801761627197266]
	},
	{
		"bufferView":14,
		"type":"SCALAR",
		"componentType":5123,
		"count":3,
		"byteOffset":0,
		"min":[0],
		"max":[2]
	},
	{
		"bufferView":15,
		"type":"VEC3",
		"componentType":5126,
		"count":3,
		"byteOffset":0,
		"min":[0.003155491780489683,
		0.0006964647909626365,
		-0.00024729128926992416],
		"max":[0.003155491780489683,
		0.0024085361510515215,
		0.0006286213756538928]
	},
	{
		"bufferView":15,
		"type":"VEC3",
		"componentType":5126,
		"count":3,
		"byteOffset":12,
		"min":[-1.0,
		0.0,
		0.0],
		"max":[-1.0,
		0.0,
		0.0]
	},
	{
		"bufferView":15,
		"type":"VEC2",
		"componentType":5126,
		"count":3,
		"byteOffset":24,
		"min":[0.12836632132530213,
		0.2911739945411682],
		"max":[0.12836632132530213,
		0.43961477279663088]
	}],
	"bufferViews":[{
		"buffer":0,
		"byteOffset":0,
		"byteLength":120,
		"target":34963
	},
	{
		"buffer":0,
		"byteOffset":120,
		"byteLength":1152,
		"target":34962,
		"byteStride":32
	},
	{
		"buffer":1,
		"byteOffset":0,
		"byteLength":120,
		"target":34963
	},
	{
		"buffer":1,
		"byteOffset":120,
		"byteLength":1152,
		"target":34962,
		"byteStride":32
	},
	{
		"buffer":2,
		"byteOffset":0,
		"byteLength":120,
		"target":34963
	},
	{
		"buffer":2,
		"byteOffset":120,
		"byteLength":1152,
		"target":34962,
		"byteStride":32
	},
	{
		"buffer":3,
		"byteOffset":0,
		"byteLength":72,
		"target":34963
	},
	{
		"buffer":3,
		"byteOffset":72,
		"byteLength":768,
		"target":34962,
		"byteStride":32
	},
	{
		"buffer":4,
		"byteOffset":0,
		"byteLength":72,
		"target":34963
	},
	{
		"buffer":4,
		"byteOffset":72,
		"byteLength":768,
		"target":34962,
		"byteStride":32
	},
	{
		"buffer":5,
		"byteOffset":0,
		"byteLength":72,
		"target":34963
	},
	{
		"buffer":5,
		"byteOffset":72,
		"byteLength":768,
		"target":34962,
		"byteStride":32
	},
	{
		"buffer":6,
		"byteOffset":0,
		"byteLength":1500,
		"target":34963
	},
	{
		"buffer":6,
		"byteOffset":1500,
		"byteLength":9216,
		"target":34962,
		"byteStride":32
	},
	{
		"buffer":7,
		"byteOffset":0,
		"byteLength":6,
		"target":34963
	},
	{
		"buffer":7,
		"byteOffset":8,
		"byteLength":96,
		"target":34962,
		"byteStride":32
	}],
	"buffers":[{
		"uri":"data:application/octet-stream;base64,",
		"byteLength":1272
	},
	{
		"uri":"data:application/octet-stream;base64,",
		"byteLength":1272
	},
	{
		"uri":"data:application/octet-stream;base64,",
		"byteLength":1272
	},
	{
		"uri":"data:application/octet-stream;base64,",
		"byteLength":840
	},
	{
		"uri":"data:application/octet-stream;base64,",
		"byteLength":840
	},
	{
		"uri":"data:application/octet-stream;base64,",
		"byteLength":840
	},
	{
		"uri":"data:application/octet-stream;base64,",
		"byteLength":10716
	},
	{
		"uri":"data:application/octet-stream;base64,",
		"byteLength":104
	}],
	"materials":[{
		"pbrMetallicRoughness":{
			"baseColorFactor":[1.0,
			1.0,
			1.0,
			1.0],
			"metallicFactor":1.0,
			"roughnessFactor":1.0
		},
		"emissiveFactor":[0.0,
		0.0,
		0.0],
		"alphaMode":"OPAQUE",
		"doubleSided":false,
		"name":""
	},
	{
		"pbrMetallicRoughness":{
			"baseColorFactor":[1.0,
			1.0,
			1.0,
			1.0],
			"metallicFactor":1.0,
			"roughnessFactor":1.0
		},
		"emissiveFactor":[0.0,
		0.0,
		0.0],
		"alphaMode":"OPAQUE",
		"doubleSided":false,
		"name":""
	},
	{
		"pbrMetallicRoughness":{
			"baseColorFactor":[1.0,
			1.0,
			1.0,
			1.0],
			"metallicFactor":1.0,
			"roughnessFactor":1.0
		},
		"emissiveFactor":[0.0,
		0.0,
		0.0],
		"alphaMode":"OPAQUE",
		"doubleSided":false,
		"name":""
	},
	{
		"pbrMetallicRoughness":{
			"baseColorFactor":[1.0,
			1.0,
			1.0,
			1.0],
			"metallicFactor":1.0,
			"roughnessFactor":1.0
		},
		"emissiveFactor":[0.0,
		0.0,
		0.0],
		"alphaMode":"OPAQUE",
		"doubleSided":false,
		"name":""
	},
	{
		"pbrMetallicRoughness":{
			"baseColorFactor":[1.0,
			1.0,
			1.0,
			1.0],
			"metallicFactor":1.0,
			"roughnessFactor":1.0
		},
		"emissiveFactor":[0.0,
		0.0,
		0.0],
		"alphaMode":"OPAQUE",
		"doubleSided":false,
		"name":""
	},
	{
		"pbrMetallicRoughness":{
			"baseColorFactor":[1.0,
			1.0,
			1.0,
			1.0],
			"metallicFactor":1.0,
			"roughnessFactor":1.0
		},
		"emissiveFactor":[0.0,
		0.0,
		0.0],
		"alphaMode":"OPAQUE",
		"doubleSided":false,
		"name":""
	},
	{
		"pbrMetallicRoughness":{
			"baseColorFactor":[1.0,
			1.0,
			1.0,
			1.0],
			"metallicFactor":1.0,
			"roughnessFactor":1.0
		},
		"emissiveFactor":[0.0,
		0.0,
		0.0],
		"alphaMode":"OPAQUE",
		"doubleSided":false,
		"name":""
	},
	{
		"pbrMetallicRoughness":{
			"baseColorFactor":[1.0,
			1.0,
			1.0,
			1.0],
			"metallicFactor":1.0,
			"roughnessFactor":1.0
		},
		"emissiveFactor":[0.0,
		0.0,
		0.0],
		"alphaMode":"OPAQUE",
		"doubleSided":false,
		"name":""
	}]
}